<svg xmlns="http://www.w3.org/2000/svg" xmlns:xlink="http://www.w3.org/1999/xlink" width="550" height="251" viewBox="0 0 550 251">
    <defs>
        <path id="a" d="M1.954 131.387c-2.23-1.246-1.958-2.256.606-2.256h198.988c2.564 0 2.788.932.465 2.017 0 0-11.05 6.12-24.211 6.757-13.162.636-138.592.702-153.002 0-14.41-.703-22.846-6.518-22.846-6.518z"/>
        <rect id="b" width="168.257" height="130.435" x="17.482" rx="6"/>
        <path id="c" d="M0 0h152.071v114.165H0z"/>
        <path id="e" d="M0 0h152.071v114.165H0z"/>
        <path id="f" d="M0 0h152.071v114.165H0z"/>
        <path id="h" d="M0 0h152.071v114.165H0z"/>
        <path id="j" d="M0 0h152.071v114.165H0z"/>
        <path id="l" d="M0 0h46.096v84.847H0z"/>
        <path id="n" d="M0 0h43v82H0z"/>
        <ellipse id="p" cx="50.216" cy="7.701" rx="3.261" ry="3.261"/>
        <ellipse id="q" cx="93.259" cy="7.701" rx="3.261" ry="3.261"/>
    </defs>
    <g fill="none" fill-rule="evenodd">
        <g transform="translate(272 1)">
            <ellipse cx="138.019" cy="242.174" fill="#000" fill-opacity=".12" rx="92.019" ry="7.174"/>
            <g transform="translate(.778 29.223)">
                <use fill="#EAF4FC" xlink:href="#a"/>
                <path stroke="#0067E8" stroke-width="2" d="M201.811 130.135a8.648 8.648 0 0 0-.263-.004H2.56c-.259 0-.487.012-.682.033.156.11.345.227.564.35l.08.05c.06.041.193.128.398.254.35.215.768.457 1.253.717a39.992 39.992 0 0 0 4.927 2.209c4.632 1.73 9.903 2.877 15.749 3.162 14.006.683 139.397.653 152.904 0 5.379-.26 10.799-1.46 16.018-3.296a63.668 63.668 0 0 0 5.679-2.304 45.89 45.89 0 0 0 1.551-.755c.263-.135.44-.23.589-.309.077-.036.15-.072.221-.107z"/>
            </g>
            <g transform="translate(.778 29.223)">
                <use fill="#E9F3FB" xlink:href="#b"/>
                <rect width="166.257" height="128.435" x="18.482" y="1" stroke="#0067E8" stroke-width="2" rx="6"/>
            </g>
            <path fill="#C4E1F7" d="M26.146 38.499h152.07v114.165H26.147z"/>
            <g transform="translate(26.146 38.499)">
                <mask id="d" fill="#fff">
                    <use xlink:href="#c"/>
                </mask>
                <path fill="#FFF" d="M149.04.874H2.798c-.99 0-1.748.757-1.748 1.747v9.902h149.74V2.621c0-.99-.758-1.747-1.748-1.747z" mask="url(#d)"/>
            </g>
            <g transform="translate(26.146 38.499)">
                <mask id="g" fill="#fff">
                    <use xlink:href="#f"/>
                </mask>
                <use fill="#F9F9F9" xlink:href="#f"/>
                <path fill="#FFF" d="M69.218 113.873H-.117V12.523h106.625z" mask="url(#g)"/>
            </g>
            <g transform="translate(26.146 38.499)">
                <mask id="i" fill="#fff">
                    <use xlink:href="#h"/>
                </mask>
                <path fill="#C4E1F7" stroke="#0067E8" stroke-width="2" d="M1.165 12.232h149.74" mask="url(#i)"/>
            </g>
            <g transform="translate(26.146 38.499)">
                <mask id="k" fill="#fff">
                    <use xlink:href="#j"/>
                </mask>
                <g fill="#FFF" stroke="#0067E8" stroke-width="2" mask="url(#k)">
                    <g transform="translate(6.41 4.077)">
                        <ellipse cx="1.806" cy="2.039" rx="1.748" ry="1.747"/>
                        <ellipse cx="8.215" cy="2.039" rx="1.748" ry="1.747"/>
                        <ellipse cx="14.624" cy="2.039" rx="1.748" ry="1.747"/>
                    </g>
                </g>
            </g>
            <path stroke="#0067E8" stroke-width="2" d="M26.145 38.499h152.071v114.165H26.146z"/>
            <g>
                <path fill="#E9F3FB" stroke="#0067E8" stroke-width="2" d="M159.127 190.1V93.029c0-2.205 1.737-4.276 3.941-4.543 4.877-.601 13.762-1.536 23.182-1.536 9.353 0 18.171.935 23.115 1.536 2.205.267 3.875 2.338 3.875 4.543v97.073c0 1.47-1.069 3.34-2.472 3.674-3.741.936-11.758 2.205-24.518 2.205-12.76 0-20.777-1.27-24.518-2.205-1.47-.334-2.605-2.204-2.605-3.674z"/>
                <path fill="#0067E8" d="M185.85 91.558c.4 0 .667.268.667.668 0 .401-.267.669-.668.669-.4 0-.668-.268-.668-.669 0-.4.267-.668.668-.668zm0-1.336c-1.136 0-2.005.869-2.005 2.004 0 1.136.869 2.005 2.004 2.005 1.136 0 2.004-.869 2.004-2.005 0-1.135-.868-2.004-2.004-2.004zM168.48 91.759c.267 0 .467.2.467.467 0 .268-.2.468-.467.468a.457.457 0 0 1-.468-.468c0-.267.2-.467.468-.467zm0-.869a1.34 1.34 0 0 0-1.337 1.336 1.34 1.34 0 0 0 1.337 1.337 1.34 1.34 0 0 0 1.336-1.337 1.34 1.34 0 0 0-1.336-1.336z"/>
                <g transform="translate(163.135 96.636)">
                    <mask id="m" fill="#fff">
                        <use xlink:href="#l"/>
                    </mask>
                    <g mask="url(#m)">
                        <path fill="#F9F9F9" d="M.668.668h44.76v83.511H.668z"/>
                        <path fill="#0067E8" d="M44.76 1.336v82.175H1.336V1.336H44.76zM46.096 0H0v84.847h46.096V0z"/>
                    </g>
                </g>
                <g transform="translate(164.135 97.636)">
                    <mask id="o" fill="#fff">
                        <use xlink:href="#n"/>
                    </mask>
                    <path fill="#FFF" d="M9.021 84.515h-79.5V-31.732H51.777z" mask="url(#o)"/>
                </g>
            </g>
            <g>
                <path fill="#F9F9F9" stroke="#0067E8" stroke-width="1.5" d="M266.892 50.093h6.418s1.006 23.483-1.687 30.857c-2.694 7.374-9.82 12.356-19.917 12.356-10.097 0-19.905-5.008-21.283-15.779-1.379-10.77-.692-27.434-.692-27.434h6.46c.53 11.695 1.268 22.228 1.812 26.476 1.379 10.771 13.63 9.82 13.63 9.82s11.845.328 13.206-7.647c.587-3.434 1.475-15.418 2.053-28.65z"/>
                <path stroke="#0067E8" stroke-width="1.5" d="M233.067 5.496s8.71-8.395 18.986-3.803 9.803 7.454 12.448 15.049c2.645 7.595 1.182 54.556 0 61.483C263.318 85.15 251.896 86 251.896 86s-11.774-.308-12.972-9.664c-1.197-9.356-2.355-53.821 0-60.827s6.572-11.637 13.129-13.817c6.556-2.181 18.673 3.24 18.673 3.24"/>
                <g transform="translate(179.996)">
                    <use fill="#ED6A5E" xlink:href="#p"/>
                    <ellipse cx="50.216" cy="7.701" stroke="#0067E8" stroke-width="1.5" rx="4.011" ry="4.011"/>
                </g>
                <g transform="translate(179.996)">
                    <use fill="#ED6A5E" xlink:href="#q"/>
                    <ellipse cx="93.259" cy="7.701" stroke="#0067E8" stroke-width="1.5" rx="4.011" ry="4.011"/>
                </g>
                <g transform="translate(179.996 107.484)">
                    <ellipse cx="13.043" cy="13.044" fill="#EDEDED" stroke="#0067E8" stroke-width="1.5" rx="13.043" ry="13.044"/>
                    <ellipse cx="12.857" cy="12.857" fill="#ECECEC" stroke="#0067E8" stroke-width="1.5" rx="7.64" ry="7.64"/>
                    <ellipse cx="11.739" cy="11.739" fill="#FFF" rx="5.217" ry="5.217"/>
                </g>
                <path stroke="#0067E8" stroke-linecap="round" stroke-width="3" d="M203.537 110.865s-2.97-22.7 19.818-18.383c22.788 4.318-3.262 91.61 28.922 84.868 32.183-6.741 0-84.868 0-84.868"/>
            </g>
            <g fill="#ED6A5E" fill-opacity=".54" fill-rule="nonzero" stroke="#ED6A5E">
                <path d="M80.218 98.426a7.973 7.973 0 0 0-11.274-11.274l-4.436 4.437-11.274 11.274-4.437 4.437a7.972 7.972 0 0 0 11.273 11.274l4.438-4.436 11.273-11.275 4.437-4.437zM66.254 95.4a1.538 1.538 0 0 1 1.778-.286l.683.683a1.536 1.536 0 0 1-2.46 1.778c-.6-.6-.6-1.574 0-2.175zm-3.05 3.05a1.538 1.538 0 1 1 2.175 2.175 1.538 1.538 0 0 1-2.175-2.174zm-3.927 8.278a1.537 1.537 0 1 1 0-2.174c.6.6.6 1.574 0 2.174zm.876-5.226a1.538 1.538 0 1 1 2.175 2.176 1.538 1.538 0 0 1-2.175-2.176zm2.846 8.948a1.539 1.539 0 1 1-2.176-2.176A1.539 1.539 0 0 1 63 110.45zm3.05-3.051a1.537 1.537 0 1 1-2.176-2.175 1.537 1.537 0 0 1 2.176 2.175zm3.051-3.051a1.537 1.537 0 1 1-2.174-2.175 1.537 1.537 0 1 1 2.174 2.175zm3.051-3.05a1.538 1.538 0 1 1-.398-2.462l.684.683c.29.577.196 1.297-.286 1.778zM53.422 101.747l11.273-11.274-3.32-3.321a7.972 7.972 0 0 0-11.273 11.274l3.32 3.32zM76.897 102.675l-11.273 11.274 3.32 3.321a7.972 7.972 0 0 0 11.274-11.274l-3.321-3.321z"/>
            </g>
        </g>
        <g transform="matrix(-1 0 0 1 242 18)">
            <path fill="#C3DCEF" d="M129.5 192.98c62.132 0 112.5-17.82 112.5-61.517s-50.368-79.884-112.5-79.884S17 87.766 17 131.463s50.368 61.517 112.5 61.517z"/>
            <ellipse cx="125.91" cy="225.423" fill="#000" fill-opacity=".12" rx="106.948" ry="7.174"/>
            <path fill="#E5A6A5" d="M80.51 25.416l22.937-4.574a4 4 0 0 1 4.751 3.428l5.024 40.32c-4.324.474-7.509.948-9.555 1.424-2.047.475-6.07 2.141-12.069 4.998L77.515 30.657a4 4 0 0 1 2.994-5.24z"/>
            <path fill="#E8B6B2" d="M74.763 45.61c5.515-10.769 20.5-11.812 25.492-9.745 4.993 2.067 5.553 19.308 3.538 23.08-1.344 2.514-7.1 5.757-17.268 9.727 2.85-.66 4.678-.923 5.483-.79.806.135 1.681.848 2.627 2.14l-2.627 2.648-11.026.834C73.16 62.088 71.087 52.79 74.763 45.61z"/>
            <path fill="#E9C6C3" d="M90.16 75.682c-18.125-.286-31.196 5.146-39.212 16.298-12.023 16.728-10.097 21.257-21.947 52.55C17.151 175.82 1.38 165.137.723 177.397c-.656 12.26 18.34 21.066 24.535 17.61 2.255-1.258 14.67-15.439 19.723-20.64 5.052-5.203 7.164-3.952 9.584-10.093 1.613-4.094 1.838-8.074.675-11.939l29.498-40.11c-1.398 4.252-2.454 10.632-3.17 19.14-.716 8.51-.716 20.97 0 37.38-11.688 16.076-17.532 26.156-17.532 30.24 0 6.125 21.932 16.053 28.332 13.023 4.266-2.02 11.138-14.12 20.615-36.3 1.205-5.105.403-10.087-2.407-14.945-1.872-3.237 4.3-14.56 8.792-27.617 2.994-8.706 4.947-16.46 5.857-23.265l-3.03 16.713 42.716-2.237-12.84-41.942L121.366 68 90.16 75.682z"/>
            <path fill="#E8C6C3" d="M91.156 76.145c-1.013-2.682 2.912-5.39 11.773-8.121 13.292-4.098 21.997-2.143 32.798-8.67 11.79-7.123 7.542 3.96 25.247 6.372s18.843-7.771 32.507-3.2c13.665 4.572 22.996 36.202 20.76 61.486-1.49 16.856-14.911 28.693-40.262 35.512-.226 3.305-1.732 5.858-4.52 7.66-2.786 1.803-5.325 3.186-7.617 4.149-6.496 5.237-10.755 8.126-12.777 8.668-2.022.542-5.598-.548-10.728-3.268-7.903-1.346-11.855-5.622-11.855-12.826 0-7.204 4.017-12.144 12.049-14.819l-6.353-4.31c-1.68-3.81.084-5.716 5.291-5.716 7.811 0 14.186 5.857 25.817 3.847 11.63-2.01 18.34-11.699 20.964-17.537 1.75-3.892.968-9.57-2.345-17.033 1.273 3.784 2.055 6.553 2.345 8.306.29 1.753.29 3.71 0 5.87l-28.517 2.857c-.614-20.554-6.317-35.123-17.111-43.707-10.794-8.584-26.616-10.424-47.466-5.52z"/>
            <path fill="#A8CCE8" d="M91.156 76.145c-1.013-2.682 2.912-5.39 11.773-8.121 13.292-4.098 21.997-2.143 32.798-8.67 11.79-7.123 7.542 3.96 25.247 6.372s18.843-7.771 32.507-3.2c2.46.824 10.198 5.469 14.65 15.705 2.968 6.824 4.958 16.053 5.97 27.686l-29.85 8.048c-.29.033-.29.927 0 2.68.29 1.753.29 3.71 0 5.87l-28.518 2.857c-.614-20.554-6.317-35.123-17.111-43.707-10.794-8.584-26.616-10.424-47.466-5.52z"/>
            <circle cx="165" cy="34" r="34" fill="#E8C6C3"/>
            <path fill="#A482EA" d="M93.375 76.35c-7.4-1.179-13.706-1.179-18.918 0-5.212 1.178-9.847 3.302-13.907 6.37 8.823-3.906 16.057-4.297 21.702-1.174 5.645 3.123 8.847 9.31 9.606 18.558 10.036-11.497 21.028-14.061 32.977-7.692 11.95 6.369 13.174 17.504 3.674 33.407l27.073-.124c-.936-12.47-2.232-21.001-3.888-25.59-2.483-6.886-11.015-18.782-18.254-21.914-11.435-4.95-24.79-5.563-40.065-1.841z"/>
            <path stroke="#B2CEE4" stroke-width="2" d="M121.826 126.748c15.895-.253 27.827-.664 35.795-1.232s17.296-1.673 27.983-3.314"/>
            <path stroke="#E79C95" stroke-width="2" d="M144.266 30.642c1.891-2.632 4.218-3.948 6.98-3.948 2.762 0 5.089 1.391 6.98 4.174M171.46 30.642c1.891-2.632 4.218-3.948 6.98-3.948 2.762 0 5.089 1.391 6.98 4.174"/>
            <path fill="#FFF" d="M155.713 44.062c4.815-1.022 12.96-.722 24.431.9-.685 3.497-3.254 6.065-7.706 7.706-4.453 1.64-8.528 1.973-12.224.999-3.746-1.206-4.482-2.541-2.207-4.007"/>
        </g>
    </g>
</svg>
